<?xml version="1.0" encoding="windows-1252" standalone="no"?>
<svg xmlns="http://www.w3.org/2000/svg" xmlns:xlink="http://www.w3.org/1999/xlink" contentStyleType="text/css" height="985px" preserveAspectRatio="none" style="width:520px;height:985px;background:#FFFFFF;" version="1.1" viewBox="0 0 520 985" width="520px" zoomAndPan="magnify"><defs/><g><!--class User--><g id="elem_User"><rect codeLine="1" fill="#F1F1F1" height="96.8906" id="User" rx="2.5" ry="2.5" style="stroke:#181818;stroke-width:0.5;" width="145" x="7" y="15.15"/><ellipse cx="59.25" cy="31.15" fill="#ADD1B2" rx="11" ry="11" style="stroke:#181818;stroke-width:1.0;"/><path d="M62.2188,36.7906 Q61.6406,37.0875 61,37.2281 Q60.3594,37.3844 59.6563,37.3844 Q57.1563,37.3844 55.8281,35.7437 Q54.5156,34.0875 54.5156,30.9625 Q54.5156,27.8375 55.8281,26.1812 Q57.1563,24.525 59.6563,24.525 Q60.3594,24.525 61,24.6812 Q61.6563,24.8375 62.2188,25.1344 L62.2188,27.8531 Q61.5938,27.275 61,27.0094 Q60.4063,26.7281 59.7813,26.7281 Q58.4375,26.7281 57.75,27.8062 Q57.0625,28.8687 57.0625,30.9625 Q57.0625,33.0562 57.75,34.1344 Q58.4375,35.1969 59.7813,35.1969 Q60.4063,35.1969 61,34.9312 Q61.5938,34.65 62.2188,34.0719 L62.2188,36.7906 Z " fill="#000000"/><text fill="#000000" font-family="sans-serif" font-size="14" lengthAdjust="spacing" textLength="32" x="79.75" y="35.9967">User</text><line style="stroke:#181818;stroke-width:0.5;" x1="8" x2="151" y1="47.15" y2="47.15"/><ellipse cx="18" cy="60.7984" fill="none" rx="3" ry="3" style="stroke:#038048;stroke-width:1.0;"/><text fill="#000000" font-family="sans-serif" font-size="14" lengthAdjust="spacing" textLength="119" x="27" y="64.1451">username: String</text><ellipse cx="18" cy="77.0953" fill="none" rx="3" ry="3" style="stroke:#038048;stroke-width:1.0;"/><text fill="#000000" font-family="sans-serif" font-size="14" lengthAdjust="spacing" textLength="101" x="27" y="80.442">exams: Exam[]</text><ellipse cx="18" cy="93.3922" fill="none" rx="3" ry="3" style="stroke:#038048;stroke-width:1.0;"/><text fill="#000000" font-family="sans-serif" font-size="14" lengthAdjust="spacing" textLength="104" x="27" y="96.7389">quizzes: Quiz[]</text><line style="stroke:#181818;stroke-width:0.5;" x1="8" x2="151" y1="104.0406" y2="104.0406"/></g><!--class QuizCategories--><g id="elem_QuizCategories"><rect codeLine="6" fill="#F1F1F1" height="96.8906" id="QuizCategories" rx="2.5" ry="2.5" style="stroke:#181818;stroke-width:0.5;" width="175" x="338" y="460.71"/><ellipse cx="369.65" cy="476.71" fill="#ADD1B2" rx="11" ry="11" style="stroke:#181818;stroke-width:1.0;"/><path d="M372.6188,482.3506 Q372.0406,482.6475 371.4,482.7881 Q370.7594,482.9444 370.0563,482.9444 Q367.5563,482.9444 366.2281,481.3038 Q364.9156,479.6475 364.9156,476.5225 Q364.9156,473.3975 366.2281,471.7413 Q367.5563,470.085 370.0563,470.085 Q370.7594,470.085 371.4,470.2413 Q372.0563,470.3975 372.6188,470.6944 L372.6188,473.4131 Q371.9938,472.835 371.4,472.5694 Q370.8063,472.2881 370.1813,472.2881 Q368.8375,472.2881 368.15,473.3663 Q367.4625,474.4288 367.4625,476.5225 Q367.4625,478.6163 368.15,479.6944 Q368.8375,480.7569 370.1813,480.7569 Q370.8063,480.7569 371.4,480.4913 Q371.9938,480.21 372.6188,479.6319 L372.6188,482.3506 Z " fill="#000000"/><text fill="#000000" font-family="sans-serif" font-size="14" lengthAdjust="spacing" textLength="106" x="387.35" y="481.5567">QuizCategories</text><line style="stroke:#181818;stroke-width:0.5;" x1="339" x2="512" y1="492.71" y2="492.71"/><ellipse cx="349" cy="506.3584" fill="none" rx="3" ry="3" style="stroke:#038048;stroke-width:1.0;"/><text fill="#000000" font-family="sans-serif" font-size="14" lengthAdjust="spacing" textLength="88" x="358" y="509.7051">name: String</text><ellipse cx="349" cy="522.6553" fill="none" rx="3" ry="3" style="stroke:#038048;stroke-width:1.0;"/><text fill="#000000" font-family="sans-serif" font-size="14" lengthAdjust="spacing" textLength="126" x="358" y="526.002">description: String</text><ellipse cx="349" cy="538.9522" fill="none" rx="3" ry="3" style="stroke:#038048;stroke-width:1.0;"/><text fill="#000000" font-family="sans-serif" font-size="14" lengthAdjust="spacing" textLength="149" x="358" y="542.2989">created_at: DateTime</text><line style="stroke:#181818;stroke-width:0.5;" x1="339" x2="512" y1="549.6006" y2="549.6006"/></g><!--class Answer--><g id="elem_Answer"><rect codeLine="11" fill="#F1F1F1" height="80.5938" id="Answer" rx="2.5" ry="2.5" style="stroke:#181818;stroke-width:0.5;" width="159" x="238" y="898.13"/><ellipse cx="287.75" cy="914.13" fill="#ADD1B2" rx="11" ry="11" style="stroke:#181818;stroke-width:1.0;"/><path d="M290.7188,919.7706 Q290.1406,920.0675 289.5,920.2081 Q288.8594,920.3644 288.1563,920.3644 Q285.6563,920.3644 284.3281,918.7238 Q283.0156,917.0675 283.0156,913.9425 Q283.0156,910.8175 284.3281,909.1613 Q285.6563,907.505 288.1563,907.505 Q288.8594,907.505 289.5,907.6613 Q290.1563,907.8175 290.7188,908.1144 L290.7188,910.8331 Q290.0938,910.255 289.5,909.9894 Q288.9063,909.7081 288.2813,909.7081 Q286.9375,909.7081 286.25,910.7863 Q285.5625,911.8488 285.5625,913.9425 Q285.5625,916.0363 286.25,917.1144 Q286.9375,918.1769 288.2813,918.1769 Q288.9063,918.1769 289.5,917.9113 Q290.0938,917.63 290.7188,917.0519 L290.7188,919.7706 Z " fill="#000000"/><text fill="#000000" font-family="sans-serif" font-size="14" lengthAdjust="spacing" textLength="51" x="308.25" y="918.9767">Answer</text><line style="stroke:#181818;stroke-width:0.5;" x1="239" x2="396" y1="930.13" y2="930.13"/><ellipse cx="249" cy="943.7784" fill="none" rx="3" ry="3" style="stroke:#038048;stroke-width:1.0;"/><text fill="#000000" font-family="sans-serif" font-size="14" lengthAdjust="spacing" textLength="75" x="258" y="947.1251">text: String</text><ellipse cx="249" cy="960.0753" fill="none" rx="3" ry="3" style="stroke:#038048;stroke-width:1.0;"/><text fill="#000000" font-family="sans-serif" font-size="14" lengthAdjust="spacing" textLength="133" x="258" y="963.422">is_correct: Boolean</text><line style="stroke:#181818;stroke-width:0.5;" x1="239" x2="396" y1="970.7238" y2="970.7238"/></g><!--class Question--><g id="elem_Question"><rect codeLine="15" fill="#F1F1F1" height="145.7813" id="Question" rx="2.5" ry="2.5" style="stroke:#181818;stroke-width:0.5;" width="201" x="217" y="675.34"/><ellipse cx="281.75" cy="691.34" fill="#ADD1B2" rx="11" ry="11" style="stroke:#181818;stroke-width:1.0;"/><path d="M284.7188,696.9806 Q284.1406,697.2775 283.5,697.4181 Q282.8594,697.5744 282.1563,697.5744 Q279.6563,697.5744 278.3281,695.9338 Q277.0156,694.2775 277.0156,691.1525 Q277.0156,688.0275 278.3281,686.3713 Q279.6563,684.715 282.1563,684.715 Q282.8594,684.715 283.5,684.8713 Q284.1563,685.0275 284.7188,685.3244 L284.7188,688.0431 Q284.0938,687.465 283.5,687.1994 Q282.9063,686.9181 282.2813,686.9181 Q280.9375,686.9181 280.25,687.9963 Q279.5625,689.0588 279.5625,691.1525 Q279.5625,693.2463 280.25,694.3244 Q280.9375,695.3869 282.2813,695.3869 Q282.9063,695.3869 283.5,695.1213 Q284.0938,694.84 284.7188,694.2619 L284.7188,696.9806 Z " fill="#000000"/><text fill="#000000" font-family="sans-serif" font-size="14" lengthAdjust="spacing" textLength="63" x="302.25" y="696.1867">Question</text><line style="stroke:#181818;stroke-width:0.5;" x1="218" x2="417" y1="707.34" y2="707.34"/><ellipse cx="228" cy="720.9884" fill="none" rx="3" ry="3" style="stroke:#038048;stroke-width:1.0;"/><text fill="#000000" font-family="sans-serif" font-size="14" lengthAdjust="spacing" textLength="75" x="237" y="724.3351">text: String</text><ellipse cx="228" cy="737.2853" fill="none" rx="3" ry="3" style="stroke:#038048;stroke-width:1.0;"/><text fill="#000000" font-family="sans-serif" font-size="14" lengthAdjust="spacing" textLength="147" x="237" y="740.632">question_type: String</text><ellipse cx="228" cy="753.5822" fill="none" rx="3" ry="3" style="stroke:#038048;stroke-width:1.0;"/><text fill="#000000" font-family="sans-serif" font-size="14" lengthAdjust="spacing" textLength="175" x="237" y="756.9289">category: QuizCategories</text><ellipse cx="228" cy="769.8791" fill="none" rx="3" ry="3" style="stroke:#038048;stroke-width:1.0;"/><text fill="#000000" font-family="sans-serif" font-size="14" lengthAdjust="spacing" textLength="149" x="237" y="773.2257">created_at: DateTime</text><ellipse cx="228" cy="786.1759" fill="none" rx="3" ry="3" style="stroke:#038048;stroke-width:1.0;"/><text fill="#000000" font-family="sans-serif" font-size="14" lengthAdjust="spacing" textLength="128" x="237" y="789.5226">answers: Answer[]</text><ellipse cx="228" cy="802.4728" fill="none" rx="3" ry="3" style="stroke:#038048;stroke-width:1.0;"/><text fill="#000000" font-family="sans-serif" font-size="14" lengthAdjust="spacing" textLength="120" x="237" y="805.8195">is_done: Boolean</text><line style="stroke:#181818;stroke-width:0.5;" x1="218" x2="417" y1="813.1213" y2="813.1213"/></g><!--class Quiz--><g id="elem_Quiz"><rect codeLine="23" fill="#F1F1F1" height="178.375" id="Quiz" rx="2.5" ry="2.5" style="stroke:#181818;stroke-width:0.5;" width="188" x="114.5" y="419.97"/><ellipse cx="188.75" cy="435.97" fill="#ADD1B2" rx="11" ry="11" style="stroke:#181818;stroke-width:1.0;"/><path d="M191.7188,441.6106 Q191.1406,441.9075 190.5,442.0481 Q189.8594,442.2044 189.1563,442.2044 Q186.6563,442.2044 185.3281,440.5638 Q184.0156,438.9075 184.0156,435.7825 Q184.0156,432.6575 185.3281,431.0013 Q186.6563,429.345 189.1563,429.345 Q189.8594,429.345 190.5,429.5013 Q191.1563,429.6575 191.7188,429.9544 L191.7188,432.6731 Q191.0938,432.095 190.5,431.8294 Q189.9063,431.5481 189.2813,431.5481 Q187.9375,431.5481 187.25,432.6263 Q186.5625,433.6888 186.5625,435.7825 Q186.5625,437.8763 187.25,438.9544 Q187.9375,440.0169 189.2813,440.0169 Q189.9063,440.0169 190.5,439.7513 Q191.0938,439.47 191.7188,438.8919 L191.7188,441.6106 Z " fill="#000000"/><text fill="#000000" font-family="sans-serif" font-size="14" lengthAdjust="spacing" textLength="31" x="209.25" y="440.8167">Quiz</text><line style="stroke:#181818;stroke-width:0.5;" x1="115.5" x2="301.5" y1="451.97" y2="451.97"/><ellipse cx="125.5" cy="465.6184" fill="none" rx="3" ry="3" style="stroke:#038048;stroke-width:1.0;"/><text fill="#000000" font-family="sans-serif" font-size="14" lengthAdjust="spacing" textLength="88" x="134.5" y="468.9651">name: String</text><ellipse cx="125.5" cy="481.9153" fill="none" rx="3" ry="3" style="stroke:#038048;stroke-width:1.0;"/><text fill="#000000" font-family="sans-serif" font-size="14" lengthAdjust="spacing" textLength="156" x="134.5" y="485.262">question_time: Integer</text><ellipse cx="125.5" cy="498.2122" fill="none" rx="3" ry="3" style="stroke:#038048;stroke-width:1.0;"/><text fill="#000000" font-family="sans-serif" font-size="14" lengthAdjust="spacing" textLength="151" x="134.5" y="501.5589">questions: Question[]</text><ellipse cx="125.5" cy="514.5091" fill="none" rx="3" ry="3" style="stroke:#038048;stroke-width:1.0;"/><text fill="#000000" font-family="sans-serif" font-size="14" lengthAdjust="spacing" textLength="162" x="134.5" y="517.8557">question_value: Integer</text><ellipse cx="125.5" cy="530.8059" fill="none" rx="3" ry="3" style="stroke:#038048;stroke-width:1.0;"/><text fill="#000000" font-family="sans-serif" font-size="14" lengthAdjust="spacing" textLength="126" x="134.5" y="534.1526">description: String</text><ellipse cx="125.5" cy="547.1028" fill="none" rx="3" ry="3" style="stroke:#038048;stroke-width:1.0;"/><text fill="#000000" font-family="sans-serif" font-size="14" lengthAdjust="spacing" textLength="131" x="134.5" y="550.4495">final_score: Integer</text><ellipse cx="125.5" cy="563.3997" fill="none" rx="3" ry="3" style="stroke:#038048;stroke-width:1.0;"/><text fill="#000000" font-family="sans-serif" font-size="14" lengthAdjust="spacing" textLength="93" x="134.5" y="566.7464">image: Image</text><ellipse cx="125.5" cy="579.6966" fill="none" rx="3" ry="3" style="stroke:#038048;stroke-width:1.0;"/><text fill="#000000" font-family="sans-serif" font-size="14" lengthAdjust="spacing" textLength="142" x="134.5" y="583.0432">difficulty_level: String</text><line style="stroke:#181818;stroke-width:0.5;" x1="115.5" x2="301.5" y1="590.345" y2="590.345"/></g><!--class Exam--><g id="elem_Exam"><rect codeLine="33" fill="#F1F1F1" height="145.7813" id="Exam" rx="2.5" ry="2.5" style="stroke:#181818;stroke-width:0.5;" width="175" x="121" y="197.19"/><ellipse cx="185.75" cy="213.19" fill="#ADD1B2" rx="11" ry="11" style="stroke:#181818;stroke-width:1.0;"/><path d="M188.7188,218.8306 Q188.1406,219.1275 187.5,219.2681 Q186.8594,219.4244 186.1563,219.4244 Q183.6563,219.4244 182.3281,217.7838 Q181.0156,216.1275 181.0156,213.0025 Q181.0156,209.8775 182.3281,208.2213 Q183.6563,206.565 186.1563,206.565 Q186.8594,206.565 187.5,206.7213 Q188.1563,206.8775 188.7188,207.1744 L188.7188,209.8931 Q188.0938,209.315 187.5,209.0494 Q186.9063,208.7681 186.2813,208.7681 Q184.9375,208.7681 184.25,209.8463 Q183.5625,210.9088 183.5625,213.0025 Q183.5625,215.0963 184.25,216.1744 Q184.9375,217.2369 186.2813,217.2369 Q186.9063,217.2369 187.5,216.9713 Q188.0938,216.69 188.7188,216.1119 L188.7188,218.8306 Z " fill="#000000"/><text fill="#000000" font-family="sans-serif" font-size="14" lengthAdjust="spacing" textLength="37" x="206.25" y="218.0367">Exam</text><line style="stroke:#181818;stroke-width:0.5;" x1="122" x2="295" y1="229.19" y2="229.19"/><ellipse cx="132" cy="242.8384" fill="none" rx="3" ry="3" style="stroke:#038048;stroke-width:1.0;"/><text fill="#000000" font-family="sans-serif" font-size="14" lengthAdjust="spacing" textLength="72" x="141" y="246.1851">user: User</text><ellipse cx="132" cy="259.1353" fill="none" rx="3" ry="3" style="stroke:#038048;stroke-width:1.0;"/><text fill="#000000" font-family="sans-serif" font-size="14" lengthAdjust="spacing" textLength="104" x="141" y="262.482">quizzes: Quiz[]</text><ellipse cx="132" cy="275.4322" fill="none" rx="3" ry="3" style="stroke:#038048;stroke-width:1.0;"/><text fill="#000000" font-family="sans-serif" font-size="14" lengthAdjust="spacing" textLength="149" x="141" y="278.7789">created_at: DateTime</text><ellipse cx="132" cy="291.7291" fill="none" rx="3" ry="3" style="stroke:#038048;stroke-width:1.0;"/><text fill="#000000" font-family="sans-serif" font-size="14" lengthAdjust="spacing" textLength="97" x="141" y="295.0757">score: Integer</text><ellipse cx="132" cy="308.0259" fill="none" rx="3" ry="3" style="stroke:#038048;stroke-width:1.0;"/><text fill="#000000" font-family="sans-serif" font-size="14" lengthAdjust="spacing" textLength="149" x="141" y="311.3726">has_passed: Boolean</text><ellipse cx="132" cy="324.3228" fill="none" rx="3" ry="3" style="stroke:#038048;stroke-width:1.0;"/><text fill="#000000" font-family="sans-serif" font-size="14" lengthAdjust="spacing" textLength="133" x="141" y="327.6695">is_graded: Boolean</text><line style="stroke:#181818;stroke-width:0.5;" x1="122" x2="295" y1="334.9713" y2="334.9713"/></g><!--class QuizSet--><g id="elem_QuizSet"><rect codeLine="41" fill="#F1F1F1" height="113.1875" id="QuizSet" rx="2.5" ry="2.5" style="stroke:#181818;stroke-width:0.5;" width="152" x="238.5" y="7"/><ellipse cx="283.25" cy="23" fill="#ADD1B2" rx="11" ry="11" style="stroke:#181818;stroke-width:1.0;"/><path d="M286.2188,28.6406 Q285.6406,28.9375 285,29.0781 Q284.3594,29.2344 283.6563,29.2344 Q281.1563,29.2344 279.8281,27.5938 Q278.5156,25.9375 278.5156,22.8125 Q278.5156,19.6875 279.8281,18.0313 Q281.1563,16.375 283.6563,16.375 Q284.3594,16.375 285,16.5313 Q285.6563,16.6875 286.2188,16.9844 L286.2188,19.7031 Q285.5938,19.125 285,18.8594 Q284.4063,18.5781 283.7813,18.5781 Q282.4375,18.5781 281.75,19.6563 Q281.0625,20.7188 281.0625,22.8125 Q281.0625,24.9063 281.75,25.9844 Q282.4375,27.0469 283.7813,27.0469 Q284.4063,27.0469 285,26.7813 Q285.5938,26.5 286.2188,25.9219 L286.2188,28.6406 Z " fill="#000000"/><text fill="#000000" font-family="sans-serif" font-size="14" lengthAdjust="spacing" textLength="54" x="303.75" y="27.8467">QuizSet</text><line style="stroke:#181818;stroke-width:0.5;" x1="239.5" x2="389.5" y1="39" y2="39"/><ellipse cx="249.5" cy="52.6484" fill="none" rx="3" ry="3" style="stroke:#038048;stroke-width:1.0;"/><text fill="#000000" font-family="sans-serif" font-size="14" lengthAdjust="spacing" textLength="88" x="258.5" y="55.9951">name: String</text><ellipse cx="249.5" cy="68.9453" fill="none" rx="3" ry="3" style="stroke:#038048;stroke-width:1.0;"/><text fill="#000000" font-family="sans-serif" font-size="14" lengthAdjust="spacing" textLength="104" x="258.5" y="72.292">quizzes: Quiz[]</text><ellipse cx="249.5" cy="85.2422" fill="none" rx="3" ry="3" style="stroke:#038048;stroke-width:1.0;"/><text fill="#000000" font-family="sans-serif" font-size="14" lengthAdjust="spacing" textLength="101" x="258.5" y="88.5889">exams: Exam[]</text><ellipse cx="249.5" cy="101.5391" fill="none" rx="3" ry="3" style="stroke:#038048;stroke-width:1.0;"/><text fill="#000000" font-family="sans-serif" font-size="14" lengthAdjust="spacing" textLength="126" x="258.5" y="104.8857">description: String</text><line style="stroke:#181818;stroke-width:0.5;" x1="239.5" x2="389.5" y1="112.1875" y2="112.1875"/></g><!--link User to Exam--><g id="link_User_Exam"><path codeLine="47" d="M109.74,112.54 C125.61,137.68 145.36,169 163.03,197 " fill="none" id="User-Exam" style="stroke:#181818;stroke-width:1.0;"/><text fill="#000000" font-family="sans-serif" font-size="13" lengthAdjust="spacing" textLength="43" x="145.5" y="163.2569">exams</text><text fill="#000000" font-family="sans-serif" font-size="13" lengthAdjust="spacing" textLength="8" x="105.266" y="132.2006">1</text><text fill="#000000" font-family="sans-serif" font-size="13" lengthAdjust="spacing" textLength="36" x="120.7822" y="186.1413">many</text></g><!--link User to Quiz--><g id="link_User_Quiz"><path codeLine="48" d="M62.15,112.51 C44.38,169.52 23.27,266.58 53.5,342.97 C66.6,376.06 89.8,406.4 114.34,431.8 " fill="none" id="User-Quiz" style="stroke:#181818;stroke-width:1.0;"/><text fill="#000000" font-family="sans-serif" font-size="13" lengthAdjust="spacing" textLength="48" x="54.5" y="274.6469">quizzes</text><text fill="#000000" font-family="sans-serif" font-size="13" lengthAdjust="spacing" textLength="8" x="51.2811" y="132.1665">1</text><text fill="#000000" font-family="sans-serif" font-size="13" lengthAdjust="spacing" textLength="36" x="70.4538" y="422.905">many</text></g><!--link QuizCategories to Question--><g id="link_QuizCategories_Question"><path codeLine="49" d="M403.77,557.85 C388.5,591.38 367.78,636.86 350.47,674.85 " fill="none" id="QuizCategories-Question" style="stroke:#181818;stroke-width:1.0;"/><text fill="#000000" font-family="sans-serif" font-size="13" lengthAdjust="spacing" textLength="56" x="372.5" y="641.4069">category</text><text fill="#000000" font-family="sans-serif" font-size="13" lengthAdjust="spacing" textLength="8" x="392.1517" y="577.8286">1</text><text fill="#000000" font-family="sans-serif" font-size="13" lengthAdjust="spacing" textLength="36" x="315.8968" y="664.2143">many</text></g><!--link Question to Answer--><g id="link_Question_Answer"><path codeLine="50" d="M317.5,821.46 C317.5,847.37 317.5,875.62 317.5,897.76 " fill="none" id="Question-Answer" style="stroke:#181818;stroke-width:1.0;"/><text fill="#000000" font-family="sans-serif" font-size="13" lengthAdjust="spacing" textLength="52" x="318.5" y="864.1969">answers</text><text fill="#000000" font-family="sans-serif" font-size="13" lengthAdjust="spacing" textLength="8" x="309.1188" y="841.2277">1</text><text fill="#000000" font-family="sans-serif" font-size="13" lengthAdjust="spacing" textLength="36" x="278.6313" y="887.1609">many</text></g><!--link Quiz to Question--><g id="link_Quiz_Question"><path codeLine="51" d="M249.24,598.77 C260.79,623.89 273.22,650.93 284.27,674.96 " fill="none" id="Quiz-Question" style="stroke:#181818;stroke-width:1.0;"/><text fill="#000000" font-family="sans-serif" font-size="13" lengthAdjust="spacing" textLength="62" x="271.5" y="641.4069">questions</text><text fill="#000000" font-family="sans-serif" font-size="13" lengthAdjust="spacing" textLength="8" x="244.0529" y="618.2772">1</text><text fill="#000000" font-family="sans-serif" font-size="13" lengthAdjust="spacing" textLength="36" x="243.3871" y="664.3348">many</text></g><!--link Exam to Quiz--><g id="link_Exam_Quiz"><path codeLine="52" d="M208.5,343.18 C208.5,367.29 208.5,394.45 208.5,419.66 " fill="none" id="Exam-Quiz" style="stroke:#181818;stroke-width:1.0;"/><text fill="#000000" font-family="sans-serif" font-size="13" lengthAdjust="spacing" textLength="48" x="209.5" y="386.0369">quizzes</text><text fill="#000000" font-family="sans-serif" font-size="13" lengthAdjust="spacing" textLength="8" x="200.1188" y="362.9354">1</text><text fill="#000000" font-family="sans-serif" font-size="13" lengthAdjust="spacing" textLength="36" x="171.0656" y="409.0027">many</text></g><!--link QuizSet to Quiz--><g id="link_QuizSet_Quiz"><path codeLine="53" d="M323.87,120.49 C331.28,177.8 336.93,268.77 313.5,342.97 C305.11,369.54 291.32,396.04 276.45,419.78 " fill="none" id="QuizSet-Quiz" style="stroke:#181818;stroke-width:1.0;"/><text fill="#000000" font-family="sans-serif" font-size="13" lengthAdjust="spacing" textLength="48" x="331.5" y="274.6469">quizzes</text><text fill="#000000" font-family="sans-serif" font-size="13" lengthAdjust="spacing" textLength="8" x="316.5245" y="140.4133">1</text><text fill="#000000" font-family="sans-serif" font-size="13" lengthAdjust="spacing" textLength="36" x="244.5865" y="408.8297">many</text></g><!--link QuizSet to Exam--><g id="link_QuizSet_Exam"><path codeLine="54" d="M285.54,120.47 C273.34,144 258.98,171.69 245.99,196.75 " fill="none" id="QuizSet-Exam" style="stroke:#181818;stroke-width:1.0;"/><text fill="#000000" font-family="sans-serif" font-size="13" lengthAdjust="spacing" textLength="43" x="269.5" y="163.2569">exams</text><text fill="#000000" font-family="sans-serif" font-size="13" lengthAdjust="spacing" textLength="8" x="273.523" y="140.3908">1</text><text fill="#000000" font-family="sans-serif" font-size="13" lengthAdjust="spacing" textLength="36" x="211.8476" y="186.1191">many</text></g><!--SRC=[dLFBJiCm4Bpp5QjSKGzSVUDru8XQJWX5bhCDbXAdjPtI5F7lh1ybiKcAHAJ8rdftTZmx1X0DDmPU36hul0BwhdlQAzuYWxNLKjKXYaVU6WQFjBo-XT2-bwSJKl2PDZxuHNy0TA5xRh7kj4HpXluDMw4HMkwix5Hw83HIULLoo-21TXlPOjBXLfcFaRJ5eqq1f2b5fpKAYjzrNODSPGpHkBRB2FkOKTfXbz4MuMe3oovwaJkTS4-Q90lipqeIrwfJk4HKdfO574bAT_IaY0hgzCoFA6p7sSMo0s_wl6vnA5kfU5CQqZKlaIslNSmj4KHkjrBqZHtA1W_OJ936kpaxJNt7l1ENx7LHsZbMxzoKE-g3rLJQ87YjUPN6KydNQ2-fFiDjvedCA-aQ-HTNt1ImMa7HSZKKlf21HvbFSCqOnDwKaZsoF3bCcC7PhBuYcZxD3Mva4EqPeHS1Vtn5YNw2VzDqQludQwB9Dm00]--></g></svg>